<svg version="1.2" xmlns="http://www.w3.org/2000/svg" viewBox="0 0 839 113" width="839" height="113">
	<style>
		.s0 { fill: #53eafd } 
		.s1 { fill: none;stroke: #53eafd;stroke-miterlimit:100;stroke-width: 6.1 } 
	</style>
	<path id="STOCKWISE IA" class="s0" aria-label="STOCKWISE IA"  d="m27.2 92.3q-7.9 0-13.7-2.6-5.8-2.5-9.1-7.1-3.3-4.6-3.7-10.7h9.6q0.4 4.1 2.8 6.8 2.4 2.6 6.1 4 3.8 1.2 8 1.2 5 0 8.9-1.6 4-1.6 6.3-4.6 2.3-2.9 2.3-6.8 0-3.5-2-5.7-2-2.2-5.2-3.6-3.3-1.5-7.3-2.6l-8.8-2.5q-8.8-2.5-13.7-7.1-4.9-4.7-4.9-11.9 0-6.2 3.3-10.8 3.3-4.7 9-7.3 5.7-2.5 12.8-2.5 7.2 0 12.7 2.5 5.6 2.6 8.8 7 3.2 4.4 3.4 9.9h-9.1q-0.7-5.3-5.1-8.2-4.5-3-11-3-4.7 0-8.3 1.6-3.5 1.5-5.5 4.2-2 2.7-2 6.1 0 3.8 2.4 6.2 2.4 2.3 5.6 3.6 3.3 1.3 6 2l7.3 2.1q2.9 0.7 6.5 2.1 3.5 1.4 6.8 3.7 3.2 2.3 5.3 5.8 2.1 3.5 2.1 8.6 0 6-3.1 10.8-3.1 4.8-9.1 7.6-5.9 2.8-14.4 2.8zm59.6-66.2h-23v-8.2h55.3v8.2h-22.9v64.9h-9.4zm72.7 65.9q-9.4 0-16.8-4.6-7.3-4.5-11.5-12.9-4.2-8.4-4.2-20 0-11.7 4.2-20.1 4.2-8.4 11.5-13 7.4-4.5 16.8-4.5 9.4 0 16.7 4.5 7.3 4.6 11.4 13 4.3 8.4 4.3 20.1 0 11.6-4.3 20-4.1 8.4-11.4 12.9-7.3 4.6-16.7 4.6zm0-8.7q6.5 0 11.8-3.3 5.3-3.3 8.3-9.7 3.2-6.5 3.2-15.8 0-9.5-3.2-15.9-3-6.5-8.3-9.8-5.3-3.3-11.8-3.3-6.6 0-11.9 3.3-5.3 3.4-8.4 9.9-3.1 6.4-3.1 15.8 0 9.3 3.1 15.7 3.1 6.5 8.4 9.8 5.3 3.3 11.9 3.3zm76.9 8.7q-9.3 0-16.7-4.6-7.3-4.5-11.5-12.9-4.2-8.4-4.2-20 0-11.7 4.2-20.1 4.2-8.4 11.5-13 7.4-4.5 16.7-4.5 5.6 0 10.5 1.6 4.9 1.6 8.9 4.8 3.9 3 6.5 7.5 2.6 4.4 3.6 10.1h-9.3q-0.8-3.8-2.7-6.7-1.9-2.8-4.6-4.8-2.7-1.9-6-2.9-3.3-1-6.9-1-6.5 0-11.8 3.3-5.3 3.4-8.4 9.9-3.1 6.4-3.1 15.8 0 9.3 3.1 15.8 3.1 6.4 8.4 9.7 5.3 3.3 11.8 3.3 3.6 0 6.9-1 3.3-1 6-2.9 2.7-2 4.6-4.8 1.9-2.9 2.7-6.6h9.3q-0.9 5.6-3.6 10-2.6 4.4-6.5 7.5-3.9 3.2-8.9 4.8-4.9 1.7-10.5 1.7zm67.6-40.7l-17.8 18.8v-10q2.5-3.4 5-6.6 2.5-3.1 5.1-6.1 2.6-3 5.3-5.9l21.9-23.6h12.2l-31.2 33.4zm-14.9 39.7h-9.3v-73.1h9.3v25l-0.1 15.8 0.1 4.6zm46.6 0h-11l-26.5-37.2 5.8-7.3zm36.7 0h-10.9l-20-73.1h9.6l11.5 44.8q1 3.6 1.8 7.3 0.8 3.7 1.6 7.5 0.8 3.8 1.5 7.8h-1.1q0.7-4 1.5-7.8 0.8-3.8 1.7-7.5 0.8-3.7 1.8-7.3l11.8-44.8h10.6l11.7 44.8q1 3.6 1.9 7.3 0.8 3.7 1.7 7.5 0.8 3.8 1.5 7.8h-1.2q0.7-4 1.5-7.8 0.8-3.8 1.7-7.5 0.8-3.7 1.7-7.3l11.6-44.8h9.6l-20 73.1h-10.9l-12.6-46.3q-1.2-4.6-2.3-9.9-1.1-5.3-2.2-12.3h1.9q-1 6.6-2.1 11.8-1 5.2-2.4 10.4zm74.4-73.2h9.4v73.2h-9.4zm50.4 74.4q-7.9 0-13.7-2.6-5.8-2.5-9.1-7.1-3.3-4.6-3.7-10.8h9.6q0.4 4.2 2.8 6.9 2.4 2.6 6.1 3.9 3.8 1.3 8 1.3 5 0 8.9-1.6 4-1.6 6.3-4.6 2.3-2.9 2.3-6.8 0-3.5-2-5.7-2-2.2-5.2-3.7-3.3-1.4-7.3-2.5l-8.8-2.5q-8.8-2.5-13.7-7.1-4.9-4.7-4.9-12 0-6.1 3.3-10.8 3.3-4.6 9-7.2 5.7-2.5 12.8-2.5 7.2 0 12.7 2.5 5.6 2.6 8.8 7 3.2 4.4 3.4 9.9h-9.1q-0.7-5.3-5.1-8.2-4.5-3-11-3-4.7 0-8.3 1.6-3.5 1.5-5.5 4.2-2 2.7-2 6.1 0 3.8 2.4 6.2 2.4 2.3 5.6 3.6 3.3 1.3 6 2l7.3 2q2.9 0.8 6.5 2.2 3.5 1.4 6.8 3.7 3.2 2.2 5.3 5.8 2.1 3.5 2.1 8.6 0 5.9-3.1 10.8-3.1 4.8-9.1 7.6-5.9 2.8-14.4 2.8zm85.6-1.3h-45v-73.1h44.6v8.2h-35.2v23.9h32.8v8.2h-32.8v24.5h35.6zm44-73.1h9.4v73.1h-9.4zm30.7 73.2h-9.9l26.5-73.2h10.8l26.9 73.2h-9.8l-15.5-43.4q-1.5-4-3.4-10-1.8-6.1-4.5-15.4h1.7q-2.6 9.4-4.6 15.6-1.9 6.1-3.2 9.8zm41-20.4h-37.5v-8.2h37.5z"/>
	<g id="Pasta 1">
		<path id="Forma 1" fill-rule="evenodd" class="s1" d="m786.22 51.99v55.75l-47.03-24.94v-55.75z"/>
		<path id="Forma 1 copy" fill-rule="evenodd" class="s1" d="m786.22 51.99v55.75l45.91-24.94v-55.75z"/>
		<path id="Forma 2" fill-rule="evenodd" class="s1" d="m786.5 4l45.06 21.83-45.8 21.84-45.05-21.84z"/>
	</g>
</svg>